<?xml version="1.0" standalone="no"?>
<!DOCTYPE svg PUBLIC "-//W3C//DTD SVG 20010904//EN"
 "http://www.w3.org/TR/2001/REC-SVG-20010904/DTD/svg10.dtd">
<svg version="1.0" xmlns="http://www.w3.org/2000/svg"
 width="480.000000pt" height="480.000000pt" viewBox="0 0 480.000000 480.000000"
 preserveAspectRatio="xMidYMid meet">
<metadata>
Created by potrace 1.14, written by Peter Selinger 2001-2017
</metadata>
<g transform="translate(0.000000,480.000000) scale(0.100000,-0.100000)"
fill="#000000" stroke="none">
<path d="M1987 3463 c-3 -5 -5 -109 -5 -233 0 -124 -1 -231 -1 -237 -1 -10
-31 -13 -115 -13 -100 0 -114 -2 -118 -17 -3 -15 -2 -435 1 -468 1 -7 44 -10
116 -9 l115 1 0 -31 c3 -441 20 -556 102 -721 89 -178 229 -291 438 -354 95
-29 291 -36 376 -15 l61 16 0 269 c0 148 -1 269 -2 269 -1 0 -22 -7 -46 -16
-29 -11 -78 -17 -144 -18 -114 -1 -144 10 -194 71 -54 66 -64 116 -66 331 -1
105 1 193 4 193 3 1 103 3 221 4 118 2 218 3 221 4 3 1 6 111 6 246 l0 245
-226 2 -226 3 0 240 0 240 -257 3 c-141 1 -259 -1 -261 -5z"/>
<path d="M3855 3028 c-408 -53 -724 -418 -723 -836 0 -245 92 -462 268 -631
286 -275 732 -301 1055 -62 78 58 185 168 185 191 0 5 4 10 8 10 22 0 115 214
137 315 15 68 14 271 -2 341 -73 327 -306 574 -618 654 -88 23 -217 30 -310
18z m227 -526 c68 -30 124 -86 160 -161 28 -58 32 -76 32 -151 -1 -109 -26
-178 -92 -247 -64 -67 -128 -95 -213 -95 -259 -2 -406 310 -254 539 38 57 107
110 169 128 57 17 144 11 198 -13z"/>
<path d="M3 2468 c2 -282 7 -526 11 -541 3 -15 17 -61 30 -102 94 -295 348
-468 691 -469 423 -1 692 222 750 624 5 34 9 801 6 973 l-1 27 -260 0 -260 0
-1 -437 c-1 -490 -1 -498 -27 -556 -36 -79 -88 -116 -176 -124 -98 -9 -189 37
-221 113 -25 60 -28 125 -28 567 l0 437 -259 0 -259 0 4 -512z"/>
</g>
</svg>
